<svg width="44" height="52" viewBox="0 0 44 52" fill="none" xmlns="http://www.w3.org/2000/svg">
<path fill-rule="evenodd" clip-rule="evenodd" d="M0 5.6C0 4.2474 0.534889 2.95019 1.487 1.99376C2.4391 1.03732 3.73044 0.5 5.07692 0.5L32.8545 0.5L44 11.6962V46.4C44 47.7526 43.4651 49.0498 42.513 50.0062C41.5609 50.9627 40.2696 51.5 38.9231 51.5H5.07692C3.73044 51.5 2.4391 50.9627 1.487 50.0062C0.534889 49.0498 0 47.7526 0 46.4V5.6ZM10.1538 14.1H20.3077V17.5H10.1538V14.1ZM33.8462 24.3H10.1538V27.7H33.8462V24.3ZM33.8462 34.5H23.6923V37.9H33.8462V34.5Z" fill="black" fill-opacity="0.3"/>
</svg>
