<svg width="30" height="31" viewBox="0 0 30 31" fill="none" xmlns="http://www.w3.org/2000/svg">
<path d="M19.3748 18H18.3873L18.0373 17.6625C18.8185 16.755 19.3895 15.686 19.7093 14.532C20.0291 13.3781 20.0899 12.1677 19.8873 10.9875C19.2998 7.5125 16.3998 4.7375 12.8998 4.3125C11.6694 4.15683 10.4196 4.28471 9.24613 4.68636C8.07267 5.08801 7.00665 5.75277 6.12964 6.62979C5.25262 7.5068 4.58785 8.57283 4.18621 9.74628C3.78456 10.9197 3.65668 12.1695 3.81235 13.4C4.23735 16.9 7.01235 19.8 10.4873 20.3875C11.6675 20.5901 12.8779 20.5293 14.0319 20.2094C15.1858 19.8896 16.2548 19.3187 17.1623 18.5375L17.4998 18.8875V19.875L22.8123 25.1875C23.3248 25.7 24.1623 25.7 24.6748 25.1875C25.1873 24.675 25.1873 23.8375 24.6748 23.325L19.3748 18ZM11.8748 18C8.76235 18 6.24985 15.4875 6.24985 12.375C6.24985 9.2625 8.76235 6.75 11.8748 6.75C14.9873 6.75 17.4998 9.2625 17.4998 12.375C17.4998 15.4875 14.9873 18 11.8748 18Z" fill="#323232"/>
</svg>
