<svg width="30" height="30" viewBox="0 0 30 30" fill="none" xmlns="http://www.w3.org/2000/svg">
<g filter="url(#filter0_d_8_5276)">
<path d="M16 18C16 16.8954 16.8954 16 18 16H22C23.1046 16 24 16.8954 24 18V22C24 23.1046 23.1046 24 22 24H18C16.8954 24 16 23.1046 16 22V18Z" fill="#FFA629"/>
<path d="M18 16.25H22C22.9665 16.25 23.75 17.0335 23.75 18V22C23.75 22.9665 22.9665 23.75 22 23.75H18C17.0335 23.75 16.25 22.9665 16.25 22V18C16.25 17.0335 17.0335 16.25 18 16.25Z" stroke="white" stroke-opacity="0.15" stroke-width="0.5"/>
</g>
<g filter="url(#filter1_d_8_5276)">
<path d="M6 8C6 6.89543 6.89543 6 8 6H12C13.1046 6 14 6.89543 14 8V12C14 13.1046 13.1046 14 12 14H8C6.89543 14 6 13.1046 6 12V8Z" fill="#0D99FF"/>
<path d="M8 6.25H12C12.9665 6.25 13.75 7.0335 13.75 8V12C13.75 12.9665 12.9665 13.75 12 13.75H8C7.0335 13.75 6.25 12.9665 6.25 12V8C6.25 7.0335 7.0335 6.25 8 6.25Z" stroke="white" stroke-opacity="0.15" stroke-width="0.5"/>
</g>
<g filter="url(#filter2_d_8_5276)">
<path d="M16 8C16 6.89543 16.8954 6 18 6H22C23.1046 6 24 6.89543 24 8V12C24 13.1046 23.1046 14 22 14H18C16.8954 14 16 13.1046 16 12V8Z" fill="#14AE5C"/>
<path d="M18 6.25H22C22.9665 6.25 23.75 7.0335 23.75 8V12C23.75 12.9665 22.9665 13.75 22 13.75H18C17.0335 13.75 16.25 12.9665 16.25 12V8C16.25 7.0335 17.0335 6.25 18 6.25Z" stroke="white" stroke-opacity="0.15" stroke-width="0.5"/>
</g>
<g filter="url(#filter3_d_8_5276)">
<path d="M6 18C6 16.8954 6.89543 16 8 16H12C13.1046 16 14 16.8954 14 18V22C14 23.1046 13.1046 24 12 24H8C6.89543 24 6 23.1046 6 22V18Z" fill="#9747FF"/>
<path d="M8 16.25H12C12.9665 16.25 13.75 17.0335 13.75 18V22C13.75 22.9665 12.9665 23.75 12 23.75H8C7.0335 23.75 6.25 22.9665 6.25 22V18C6.25 17.0335 7.0335 16.25 8 16.25Z" stroke="white" stroke-opacity="0.15" stroke-width="0.5"/>
</g>
<defs>
<filter id="filter0_d_8_5276" x="14.72" y="14.72" width="11.36" height="11.36" filterUnits="userSpaceOnUse" color-interpolation-filters="sRGB">
<feFlood flood-opacity="0" result="BackgroundImageFix"/>
<feColorMatrix in="SourceAlpha" type="matrix" values="0 0 0 0 0 0 0 0 0 0 0 0 0 0 0 0 0 0 127 0" result="hardAlpha"/>
<feOffset dx="0.4" dy="0.4"/>
<feGaussianBlur stdDeviation="0.84"/>
<feComposite in2="hardAlpha" operator="out"/>
<feColorMatrix type="matrix" values="0 0 0 0 0.0675 0 0 0 0 0.12105 0 0 0 0 0.225 0 0 0 0.05 0"/>
<feBlend mode="normal" in2="BackgroundImageFix" result="effect1_dropShadow_8_5276"/>
<feBlend mode="normal" in="SourceGraphic" in2="effect1_dropShadow_8_5276" result="shape"/>
</filter>
<filter id="filter1_d_8_5276" x="4.72" y="4.72" width="11.36" height="11.36" filterUnits="userSpaceOnUse" color-interpolation-filters="sRGB">
<feFlood flood-opacity="0" result="BackgroundImageFix"/>
<feColorMatrix in="SourceAlpha" type="matrix" values="0 0 0 0 0 0 0 0 0 0 0 0 0 0 0 0 0 0 127 0" result="hardAlpha"/>
<feOffset dx="0.4" dy="0.4"/>
<feGaussianBlur stdDeviation="0.84"/>
<feComposite in2="hardAlpha" operator="out"/>
<feColorMatrix type="matrix" values="0 0 0 0 0.0675 0 0 0 0 0.12105 0 0 0 0 0.225 0 0 0 0.05 0"/>
<feBlend mode="normal" in2="BackgroundImageFix" result="effect1_dropShadow_8_5276"/>
<feBlend mode="normal" in="SourceGraphic" in2="effect1_dropShadow_8_5276" result="shape"/>
</filter>
<filter id="filter2_d_8_5276" x="14.72" y="4.72" width="11.36" height="11.36" filterUnits="userSpaceOnUse" color-interpolation-filters="sRGB">
<feFlood flood-opacity="0" result="BackgroundImageFix"/>
<feColorMatrix in="SourceAlpha" type="matrix" values="0 0 0 0 0 0 0 0 0 0 0 0 0 0 0 0 0 0 127 0" result="hardAlpha"/>
<feOffset dx="0.4" dy="0.4"/>
<feGaussianBlur stdDeviation="0.84"/>
<feComposite in2="hardAlpha" operator="out"/>
<feColorMatrix type="matrix" values="0 0 0 0 0.0675 0 0 0 0 0.12105 0 0 0 0 0.225 0 0 0 0.05 0"/>
<feBlend mode="normal" in2="BackgroundImageFix" result="effect1_dropShadow_8_5276"/>
<feBlend mode="normal" in="SourceGraphic" in2="effect1_dropShadow_8_5276" result="shape"/>
</filter>
<filter id="filter3_d_8_5276" x="4.72" y="14.72" width="11.36" height="11.36" filterUnits="userSpaceOnUse" color-interpolation-filters="sRGB">
<feFlood flood-opacity="0" result="BackgroundImageFix"/>
<feColorMatrix in="SourceAlpha" type="matrix" values="0 0 0 0 0 0 0 0 0 0 0 0 0 0 0 0 0 0 127 0" result="hardAlpha"/>
<feOffset dx="0.4" dy="0.4"/>
<feGaussianBlur stdDeviation="0.84"/>
<feComposite in2="hardAlpha" operator="out"/>
<feColorMatrix type="matrix" values="0 0 0 0 0.0675 0 0 0 0 0.12105 0 0 0 0 0.225 0 0 0 0.05 0"/>
<feBlend mode="normal" in2="BackgroundImageFix" result="effect1_dropShadow_8_5276"/>
<feBlend mode="normal" in="SourceGraphic" in2="effect1_dropShadow_8_5276" result="shape"/>
</filter>
</defs>
</svg>
